<?xml version="1.0" standalone="no"?>
<!DOCTYPE svg PUBLIC "-//W3C//DTD SVG 20010904//EN"
 "http://www.w3.org/TR/2001/REC-SVG-20010904/DTD/svg10.dtd">
<svg version="1.0" xmlns="http://www.w3.org/2000/svg"
 width="852.000000pt" height="852.000000pt" viewBox="0 0 852.000000 852.000000"
 preserveAspectRatio="xMidYMid meet">
<metadata>
Created by potrace 1.14, written by Peter Selinger 2001-2017
</metadata>
<g transform="translate(0.000000,852.000000) scale(0.100000,-0.100000)"
fill="#000000" stroke="none">
<path d="M3994 8486 c-19 -19 -34 -44 -34 -57 0 -116 101 -3190 105 -3210 15
-69 108 -98 159 -50 14 13 28 32 31 41 3 10 -15 667 -40 1461 -25 794 -44
1454 -43 1467 2 19 75 -51 416 -397 226 -231 412 -426 412 -433 0 -7 -94 -301
-210 -654 -115 -352 -210 -649 -210 -658 0 -28 31 -73 57 -85 39 -18 71 -13
103 17 27 24 54 99 255 712 124 377 225 694 225 705 -1 11 -6 30 -13 41 -15
28 -1062 1093 -1096 1116 -41 28 -78 23 -117 -16z"/>
<path d="M3308 7303 c-56 -35 -57 -21 26 -685 42 -336 75 -612 74 -614 -2 -1
-150 197 -328 441 -179 244 -337 450 -352 459 -42 25 -76 20 -114 -18 -42 -42
-44 -78 -6 -134 114 -170 883 -1204 904 -1216 42 -25 76 -20 114 18 19 19 34
44 34 55 0 12 -45 383 -100 824 -69 553 -105 812 -116 833 -27 53 -85 68 -136
37z"/>
<path d="M5644 6996 c-37 -16 -3 55 -363 -762 -186 -422 -291 -672 -291 -693
0 -23 9 -41 29 -62 38 -38 84 -39 137 -3 87 59 1271 958 1292 980 31 35 30 97
-2 129 -34 33 -89 42 -124 19 -15 -10 -240 -179 -500 -377 -261 -197 -475
-357 -477 -355 -2 1 91 217 206 478 251 569 244 550 225 595 -14 32 -59 65
-88 65 -7 -1 -27 -7 -44 -14z"/>
<path d="M1245 6449 c-685 -178 -732 -192 -757 -220 -35 -37 -37 -87 -5 -124
12 -14 635 -354 1432 -782 1140 -611 1417 -756 1449 -757 31 0 43 5 67 32 36
40 38 86 6 124 -14 18 -470 268 -1302 713 -703 377 -1283 689 -1287 693 -5 5
250 75 566 156 l574 148 39 -43 c22 -24 221 -246 442 -494 221 -247 415 -461
431 -473 45 -36 95 -34 131 6 36 40 38 87 7 128 -34 44 -853 961 -917 1027
-52 53 -58 57 -101 56 -25 0 -373 -86 -775 -190z"/>
<path d="M7664 6568 c-461 -278 -2656 -1646 -2676 -1669 -59 -63 -13 -159 77
-159 17 0 445 259 1243 754 669 415 1233 763 1253 775 l36 21 -159 -572 c-88
-315 -161 -574 -162 -576 -2 -1 -304 -65 -672 -142 -660 -137 -669 -140 -696
-170 -39 -42 -38 -92 1 -131 21 -21 39 -29 65 -29 51 0 1417 289 1442 305 11
7 26 26 32 42 25 62 412 1476 412 1504 0 20 -10 40 -29 60 -42 42 -81 39 -167
-13z"/>
<path d="M1198 5044 c-57 -30 -66 -105 -19 -151 21 -20 196 -98 590 -263 308
-129 559 -236 557 -238 -2 -2 -245 -30 -539 -62 -294 -33 -546 -62 -560 -65
-42 -11 -70 -49 -70 -96 0 -35 6 -48 32 -71 17 -15 37 -28 44 -28 6 0 356 38
777 84 l765 85 28 31 c34 38 36 88 5 124 -17 18 -241 118 -782 346 -417 176
-768 320 -780 320 -11 -1 -33 -7 -48 -16z"/>
<path d="M6500 4366 c-404 -46 -745 -88 -757 -94 -55 -30 -70 -102 -30 -146
16 -18 240 -118 781 -346 417 -176 767 -320 778 -320 28 0 76 27 88 49 20 39
12 91 -19 119 -19 17 -240 115 -590 262 -308 129 -559 236 -557 238 4 3 1066
122 1093 122 22 0 71 50 76 77 12 61 -47 126 -110 122 -10 -1 -349 -38 -753
-83z"/>
<path d="M5124 3951 c-60 -26 -83 -109 -41 -155 12 -14 596 -333 1302 -711
704 -377 1283 -689 1287 -693 5 -5 -250 -75 -566 -156 l-574 -148 -39 43 c-22
24 -221 247 -442 494 -221 248 -415 461 -431 473 -45 36 -95 34 -131 -6 -36
-40 -38 -87 -7 -128 34 -44 853 -961 917 -1026 49 -51 60 -58 94 -58 32 0
1382 342 1505 381 60 19 82 105 40 154 -25 28 -2827 1534 -2868 1540 -14 3
-35 0 -46 -4z"/>
<path d="M1815 3705 c-374 -79 -690 -149 -702 -154 -13 -6 -30 -25 -38 -43
-23 -52 -415 -1476 -415 -1510 0 -41 50 -88 94 -88 39 0 -103 -86 1460 882
710 439 1304 813 1320 830 24 27 27 37 23 72 -8 58 -47 90 -101 83 -32 -4
-299 -165 -1268 -765 -675 -418 -1235 -765 -1246 -771 -15 -8 10 91 140 562
88 314 161 573 162 575 2 1 304 65 672 142 660 137 669 140 697 170 59 66 15
161 -75 159 -24 0 -349 -65 -723 -144z"/>
<path d="M4295 3347 c-19 -19 -35 -45 -35 -56 0 -12 20 -666 45 -1454 25 -787
44 -1442 43 -1455 -2 -19 -75 51 -415 397 -227 231 -413 426 -413 433 0 7 95
302 211 656 161 492 209 650 204 672 -8 38 -58 80 -96 80 -17 0 -41 -11 -59
-27 -27 -25 -54 -100 -255 -713 -124 -377 -225 -694 -225 -705 1 -11 6 -30 13
-41 21 -38 1069 -1098 1103 -1117 23 -13 43 -17 63 -12 36 8 81 57 81 88 0 12
-23 731 -50 1597 -27 866 -50 1585 -50 1597 0 35 -49 83 -92 90 -33 5 -41 2
-73 -30z"/>
<path d="M2740 2575 c-360 -272 -663 -505 -674 -517 -22 -28 -17 -99 9 -128
25 -28 83 -37 115 -18 14 8 241 178 504 377 263 200 479 361 481 359 2 -1 -96
-228 -217 -503 -127 -289 -220 -514 -221 -532 -2 -73 75 -122 139 -88 40 21 4
-53 363 761 185 419 291 673 291 693 0 48 -46 91 -97 91 -35 0 -94 -42 -693
-495z"/>
<path d="M4894 2966 c-19 -19 -34 -44 -34 -55 0 -12 45 -383 100 -824 69 -553
105 -812 116 -833 27 -53 82 -68 135 -37 58 34 58 19 -25 685 -42 336 -75 612
-74 614 2 1 150 -197 328 -441 179 -244 337 -450 352 -459 42 -25 76 -20 114
18 42 42 44 78 7 134 -115 170 -884 1204 -905 1216 -42 25 -76 20 -114 -18z"/>
</g>
</svg>
